# Blender v2.79 (sub 0) OBJ File: ''
# www.blender.org
mtllib arrow.mtl
o Arrow
v 0.000000 0.000000 -0.200000
v 0.000000 1.000000 -0.200000
v 0.173205 0.000000 -0.100000
v 0.173205 1.000000 -0.100000
v 0.173205 0.000000 0.100000
v 0.173205 1.000000 0.100000
v -0.000000 0.000000 0.200000
v -0.000000 1.000000 0.200000
v -0.173205 0.000000 0.100000
v -0.173205 1.000000 0.100000
v -0.173205 0.000000 -0.100000
v -0.173205 1.000000 -0.100000
v 0.000000 1.115329 -0.300000
v 0.259808 1.115329 -0.150000
v 0.259808 1.115329 0.150000
v -0.000000 1.115329 0.300000
v 0.000000 1.615329 0.000000
v -0.259808 1.115329 0.150000
v -0.259808 1.115329 -0.150000
vn 0.5000 0.0000 -0.8660
vn 1.0000 0.0000 0.0000
vn 0.5000 0.0000 0.8660
vn -0.5000 0.0000 0.8660
vn 0.0000 1.0000 -0.0000
vn -1.0000 0.0000 0.0000
vn -0.5000 0.0000 -0.8660
vn 0.0000 -1.0000 0.0000
vn 0.4437 0.4611 -0.7685
vn 0.8874 0.4611 0.0000
vn 0.4437 0.4611 0.7685
vn -0.4437 0.4611 0.7685
vn -0.8874 0.4611 0.0000
vn -0.4437 0.4611 -0.7685
vn 0.3998 -0.6005 0.6925
vn -0.3998 -0.6005 0.6925
vn -0.3998 -0.6005 -0.6925
vn 0.3998 -0.6005 -0.6925
vn -0.7996 -0.6005 0.0000
vn 0.7996 -0.6005 0.0000
usemtl None
s off
f 2//1 3//1 1//1
f 4//2 5//2 3//2
f 6//3 7//3 5//3
f 8//4 9//4 7//4
f 10//5 8//5 6//5
f 10//6 11//6 9//6
f 12//7 1//7 11//7
f 9//8 11//8 3//8
f 13//9 17//9 14//9
f 14//10 17//10 15//10
f 15//11 17//11 16//11
f 16//12 17//12 18//12
f 18//13 17//13 19//13
f 19//14 17//14 13//14
f 16//15 6//15 15//15
f 8//15 6//15 16//15
f 16//16 18//16 8//16
f 10//16 8//16 18//16
f 2//17 19//17 13//17
f 13//18 14//18 2//18
f 14//18 4//18 2//18
f 2//17 12//17 19//17
f 12//19 18//19 19//19
f 12//19 10//19 18//19
f 6//20 14//20 15//20
f 6//20 4//20 14//20
f 2//1 4//1 3//1
f 4//2 6//2 5//2
f 6//3 8//3 7//3
f 8//4 10//4 9//4
f 6//5 4//5 10//5
f 4//5 2//5 10//5
f 2//5 12//5 10//5
f 10//6 12//6 11//6
f 12//7 2//7 1//7
f 11//8 1//8 3//8
f 3//8 5//8 7//8
f 7//8 9//8 3//8
